<!-- public/assets/google.svg -->
<svg xmlns="http://www.w3.org/2000/svg" viewBox="0 0 48 48" width="22" height="22">
  <path fill="#FFC107" d="M43.6 20.5H42V20H24v8h11.3C33.2 33 29.1 36 24 36c-6.6 0-12-5.4-12-12s5.4-12 12-12c3.1 0 5.9 1.2 8 3.1l5.7-5.7C34.6 6.1 29.6 4 24 4 12.9 4 4 12.9 4 24s8.9 20 20 20c11 0 20-9 20-20 0-1.2-.1-2.3-.4-3.5z"/>
  <path fill="#FF3D00" d="M6.3 14.7l6.6 4.8C14.3 15.2 18.8 12 24 12c3.1 0 5.9 1.2 8 3.1l5.7-5.7C34.6 6.1 29.6 4 24 4c-7.8 0-14.5 4.5-17.7 10.7z"/>
  <path fill="#4CAF50" d="M24 44c5.1 0 9.8-1.9 13.3-5l-6.2-5.2C28.5 35.9 26.3 36 24 36c-5.1 0-9.4-3-11.3-7.3l-6.5 5C9.5 39.5 16.2 44 24 44z"/>
  <path fill="#1976D2" d="M43.6 20.5H42V20H24v8h11.3c-1.2 3.2-4.3 6-11.3 6-5.1 0-9.4-3-11.3-7.3l-6.5 5C9.5 39.5 16.2 44 24 44c11 0 20-9 20-20 0-1.2-.1-2.3-.4-3.5z"/>
</svg>
