<?xml version="1.0" standalone="no"?>
<!DOCTYPE svg PUBLIC "-//W3C//DTD SVG 20010904//EN" "http://www.w3.org/TR/2001/REC-SVG-20010904/DTD/svg10.dtd">
<svg xmlns="http://www.w3.org/2000/svg" version="1.0" width="1024.000000pt" height="1024.000000pt" viewBox="0 0 1024.000000 1024.000000" preserveAspectRatio="xMidYMid meet">
<metadata>
Created by potrace 1.16, written by Peter Selinger 2001-2019
<meta name="Producer" content="Online-Convert"/></metadata>
<g transform="translate(0.000000,1024.000000) scale(0.100000,-0.100000)" fill="#000000" stroke="none">
<path d="M0 5120 l0 -5120 5120 0 5120 0 0 5120 0 5120 -5120 0 -5120 0 0 -5120z m5188 4273 c13 -8 32 -28 42 -46 24 -39 25 -99 5 -327 -15 -176 -68 -895 -89 -1223 -7 -109 -15 -200 -18 -202 -5 -6 -8 29 -38 465 -11 162 -34 486 -51 720 -17 234 -29 456 -26 493 5 80 26 116 78 134 37 13 61 9 97 -14z m-1324 -654 c15 -12 149 -163 298 -338 150 -174 333 -385 407 -470 223 -255 385 -464 300 -385 -19 17 -126 112 -238 210 -113 98 -284 249 -381 334 -96 85 -252 222 -345 304 -203 178 -215 193 -215 259 0 40 5 53 29 78 37 37 103 41 145 8z m2668 10 c31 -16 48 -68 38 -113 -12 -53 -43 -94 -125 -162 -39 -33 -118 -100 -175 -150 -283 -247 -597 -523 -705 -619 -163 -145 -223 -194 -205 -169 29 42 169 210 281 339 63 72 195 225 294 340 99 115 236 274 306 354 72 85 142 155 165 168 42 25 93 29 126 12z m-1884 -31 c27 -30 30 -38 112 -326 81 -281 169 -564 229 -731 23 -63 39 -116 37 -118 -1 -2 -16 25 -31 59 -15 35 -69 151 -120 258 -51 107 -139 298 -195 425 -159 355 -171 395 -135 435 25 27 76 26 103 -2z m1069 -4 c21 -21 25 -32 20 -62 -2 -20 -60 -154 -127 -297 -200 -425 -279 -594 -327 -705 -56 -131 -75 -153 -32 -40 43 117 61 171 204 641 69 226 132 424 140 440 29 54 81 64 122 23z m-1622 -933 c356 -168 776 -374 771 -378 -1 -2 -43 12 -92 31 -49 19 -204 70 -344 115 -443 139 -680 220 -711 241 -23 17 -29 29 -29 60 0 50 19 62 90 57 46 -3 99 -24 315 -126z m2447 112 c22 -20 23 -56 2 -88 -13 -20 -49 -35 -178 -76 -306 -96 -801 -261 -884 -295 -236 -97 0 24 538 276 162 76 324 152 360 169 73 35 133 40 162 14z m572 -507 c99 -42 99 -161 -1 -202 -42 -18 -130 -13 -1253 76 -206 17 -384 30 -394 30 -11 0 -17 2 -15 4 8 8 242 26 594 46 481 27 867 50 885 54 41 9 154 4 184 -8z m-3164 -30 c629 -37 792 -48 820 -56 14 -4 -65 -14 -185 -24 -116 -9 -316 -26 -445 -37 -671 -55 -939 -71 -988 -57 -52 14 -92 59 -92 101 0 37 30 83 64 98 31 13 342 4 826 -25z m1685 -252 c332 -118 519 -184 704 -248 110 -38 194 -72 208 -86 28 -27 30 -69 5 -100 -40 -49 -57 -42 -647 255 -302 152 -552 279 -555 282 -3 3 20 -5 50 -17 30 -12 136 -51 235 -86z m-795 82 c0 -8 -437 -234 -742 -384 -194 -96 -319 -152 -338 -152 -46 0 -84 42 -76 83 4 18 14 40 24 49 9 9 195 76 412 149 392 130 642 219 690 245 28 15 30 16 30 10z m-31 -233 c-40 -54 -105 -134 -144 -178 -39 -44 -176 -204 -304 -355 -129 -151 -260 -304 -290 -340 -31 -36 -87 -102 -124 -146 -97 -118 -168 -144 -228 -85 -23 24 -29 38 -29 73 0 80 12 93 531 549 52 46 180 161 284 254 104 94 230 207 280 251 49 45 92 80 94 78 2 -2 -29 -47 -70 -101z m611 -313 c32 -69 77 -165 100 -215 23 -49 61 -133 85 -185 24 -52 64 -137 89 -189 25 -52 46 -107 46 -123 0 -34 -39 -78 -70 -78 -42 0 -67 43 -115 196 -80 255 -256 784 -296 892 -22 56 -39 106 -38 110 0 8 110 -217 199 -408z m128 263 c93 -82 294 -258 447 -393 153 -135 315 -276 359 -314 200 -172 243 -235 212 -309 -24 -60 -78 -81 -140 -57 -34 12 -98 78 -221 224 -90 108 -308 362 -605 706 -112 129 -230 276 -230 285 0 11 14 0 178 -142z m-573 4 c-25 -70 -74 -221 -110 -335 -205 -652 -213 -676 -241 -700 -35 -31 -80 -26 -107 10 -20 27 -20 29 -3 83 9 30 107 243 217 472 110 230 219 460 241 511 23 51 43 91 44 89 2 -2 -16 -61 -41 -130z m185 -347 c45 -553 69 -897 76 -1080 6 -188 0 -211 -71 -244 -64 -31 -126 2 -146 77 -11 41 -6 139 31 667 38 531 60 876 60 937 0 77 14 118 18 53 1 -25 16 -209 32 -410z m-2816 -2140 c90 -23 180 -68 239 -120 40 -36 41 -38 25 -61 -9 -13 -36 -46 -61 -74 l-45 -50 -29 26 c-150 135 -453 138 -534 6 -25 -42 -25 -121 0 -162 26 -44 116 -87 276 -133 183 -53 240 -75 298 -117 101 -75 143 -172 135 -310 -9 -142 -85 -253 -214 -312 -118 -54 -324 -66 -469 -28 -97 25 -219 89 -270 140 l-46 46 67 74 c36 41 69 75 72 75 2 0 24 -18 47 -39 85 -78 209 -125 335 -125 113 0 165 16 216 68 50 49 62 95 44 162 -23 80 -92 121 -315 184 -178 50 -263 88 -317 142 -98 98 -121 273 -53 408 46 91 162 175 283 204 86 21 225 20 316 -4z m1409 -16 c226 -51 347 -195 347 -415 0 -151 -59 -266 -178 -346 -108 -72 -166 -86 -399 -91 l-203 -4 0 -234 0 -234 -105 0 -105 0 -1 213 c0 116 -2 418 -3 670 l-2 457 288 0 c230 0 304 -3 361 -16z m1508 -399 c123 -316 329 -846 357 -917 2 -4 -50 -8 -116 -8 l-120 0 -18 48 c-10 26 -39 101 -65 167 l-47 120 -295 3 -295 2 -18 -47 c-9 -27 -38 -102 -63 -168 l-46 -120 -113 -3 c-61 -1 -112 0 -112 4 0 3 76 205 169 448 92 242 206 541 252 664 l84 222 143 -2 143 -3 160 -410z m1429 391 c142 -46 230 -119 287 -234 26 -52 28 -66 28 -167 -1 -91 -5 -120 -23 -167 -31 -77 -105 -156 -184 -198 -35 -18 -64 -34 -66 -36 -5 -3 254 -412 289 -456 28 -36 29 -38 10 -48 -26 -13 -179 -13 -218 1 -24 8 -43 32 -89 110 -33 55 -93 157 -135 227 l-75 127 -147 3 -147 3 0 -241 0 -241 -102 3 -103 3 -3 668 -2 669 312 -4 c266 -4 321 -7 368 -22z m1022 -299 l3 -324 293 324 294 323 146 0 146 0 -35 -37 c-20 -21 -125 -135 -234 -253 -109 -118 -222 -240 -251 -270 l-53 -55 147 -195 c81 -107 202 -268 270 -357 67 -89 122 -164 122 -167 0 -3 -60 -6 -134 -6 l-134 0 -39 48 c-29 34 -377 500 -388 520 -1 1 -36 -33 -78 -75 l-77 -78 0 -207 0 -208 -105 0 -105 0 0 670 0 670 105 0 105 0 2 -323z m-5695 -1566 c28 -13 61 -34 74 -47 l23 -25 -26 -25 -25 -26 -56 32 c-127 71 -264 17 -242 -96 8 -44 49 -71 174 -116 150 -53 200 -112 188 -221 -8 -67 -46 -120 -110 -152 -97 -48 -245 -27 -332 48 l-39 34 23 31 c26 38 32 39 57 11 30 -35 114 -69 167 -69 90 0 147 48 147 124 0 50 -37 80 -143 116 -155 52 -202 88 -217 170 -19 104 38 198 138 231 43 14 143 4 199 -20z m3465 9 c30 -11 69 -33 88 -49 l35 -30 -28 -28 c-23 -23 -30 -26 -45 -15 -112 79 -227 71 -322 -20 -100 -98 -108 -282 -18 -392 79 -97 234 -114 336 -39 l34 25 29 -28 c27 -26 28 -29 12 -46 -9 -10 -46 -33 -82 -51 -57 -28 -75 -32 -146 -32 -66 0 -90 5 -136 26 -75 35 -129 91 -170 175 -31 62 -34 77 -34 154 0 74 4 93 31 150 37 78 71 120 132 162 87 60 190 73 284 38z m-1602 -238 c0 -237 1 -250 23 -292 35 -69 64 -85 157 -85 88 0 119 15 155 76 18 31 20 55 23 292 l3 257 40 0 39 0 0 -257 c0 -158 -4 -274 -11 -298 -17 -59 -90 -129 -158 -149 -68 -20 -113 -20 -178 -1 -75 22 -126 64 -154 126 -23 52 -24 64 -27 317 l-3 262 45 0 46 0 0 -248z m-1510 118 l0 -69 83 -3 82 -3 0 -35 -1 -35 -82 -3 -82 -3 0 -144 c0 -79 4 -155 10 -169 14 -37 51 -52 95 -39 33 11 34 10 46 -24 6 -19 8 -37 5 -41 -15 -14 -133 -14 -168 1 -63 26 -72 57 -76 250 l-4 167 -34 0 c-33 0 -34 1 -34 39 0 39 1 40 38 43 l37 3 -3 68 -4 67 46 0 46 0 0 -70z m534 -71 c85 -23 142 -83 170 -178 29 -98 44 -91 -188 -91 l-204 0 8 -34 c19 -85 79 -136 158 -136 52 0 90 15 125 48 29 28 48 25 71 -11 21 -33 -61 -89 -156 -107 -40 -8 -66 -7 -110 5 -77 20 -121 54 -154 122 -72 146 0 332 146 378 56 17 84 18 134 4z m646 -19 c106 -54 156 -197 114 -328 -9 -28 -29 -66 -45 -85 -76 -92 -233 -107 -321 -29 -17 14 -18 8 -18 -122 l0 -137 -40 3 c-22 2 -40 6 -40 11 0 4 0 165 0 357 l0 350 40 0 c39 0 40 -1 41 -37 0 -21 3 -33 5 -26 7 15 65 52 102 64 38 12 118 2 162 -21z m1199 19 c119 -25 186 -121 182 -263 -3 -146 -100 -247 -236 -247 -57 0 -112 18 -134 44 -7 10 -16 17 -20 17 -3 0 -6 -60 -6 -132 l0 -133 -40 1 -40 1 -3 356 -2 357 46 0 c46 0 46 0 42 -30 -5 -36 -5 -36 31 -9 27 20 94 48 118 49 7 0 35 -5 62 -11z m1264 -3 c94 -34 110 -71 117 -271 l5 -160 33 1 c20 1 32 -3 32 -11 0 -7 2 -20 5 -27 7 -18 -34 -38 -76 -38 -30 0 -79 37 -79 60 0 6 -17 -3 -37 -19 -102 -81 -251 -50 -284 59 -10 33 -9 47 6 85 27 72 112 118 242 131 l65 7 -6 36 c-7 48 -46 81 -94 81 -38 0 -115 -30 -126 -49 -12 -19 -31 -12 -49 18 -17 29 -17 29 15 53 40 28 123 57 163 57 17 0 47 -6 68 -13z m958 -2 c93 -28 169 -131 169 -231 l0 -33 -199 0 -199 0 7 -32 c33 -143 179 -185 289 -85 l23 21 26 -27 c26 -26 26 -27 8 -47 -10 -11 -43 -32 -73 -47 -139 -68 -298 -8 -352 132 -7 17 -13 59 -13 95 -2 120 68 222 173 255 59 18 76 18 141 -1z m620 -14 c70 -36 121 -113 134 -205 l7 -45 -205 0 -205 0 8 -35 c31 -138 180 -181 288 -82 l23 21 27 -28 27 -27 -30 -26 c-120 -101 -306 -85 -384 33 -60 91 -62 205 -5 301 63 108 203 149 315 93z m934 -4 c30 -14 55 -28 55 -31 0 -10 -30 -65 -36 -65 -3 0 -25 12 -49 26 -33 19 -59 26 -100 26 -65 1 -95 -19 -95 -63 0 -37 24 -52 125 -80 97 -26 127 -41 154 -75 25 -32 28 -101 6 -144 -47 -91 -245 -116 -349 -43 -50 35 -52 44 -23 79 l24 28 29 -27 c39 -36 85 -50 151 -45 63 5 96 31 96 74 0 35 -21 50 -108 75 -137 39 -180 67 -191 125 -26 138 146 216 311 140z m-2145 -22 l0 -46 27 33 c34 40 79 59 139 59 38 0 45 -3 40 -16 -3 -9 -9 -27 -12 -40 -5 -21 -12 -24 -48 -24 -54 0 -100 -29 -126 -79 -17 -35 -20 -59 -20 -190 l0 -149 -41 -4 c-22 -2 -42 -2 -45 1 -2 2 -4 116 -4 253 l0 248 45 0 45 0 0 -46z m1540 0 l0 -47 21 27 c30 38 91 66 144 66 l47 0 -7 -32 c-10 -47 -12 -48 -56 -48 -53 0 -92 -22 -121 -67 -21 -35 -23 -52 -28 -198 l-5 -160 -38 0 -37 0 0 253 0 252 40 0 40 0 0 -46z"/>
<path d="M3320 3989 l0 -244 197 5 c183 5 202 7 246 29 87 42 137 146 122 249 -9 57 -18 77 -58 120 -57 59 -118 74 -324 80 l-183 4 0 -243z"/>
<path d="M4926 4112 c-16 -42 -64 -172 -107 -288 -44 -117 -79 -213 -79 -215 0 -2 99 -3 219 -1 l220 3 -16 37 c-9 20 -58 149 -110 286 -51 138 -95 251 -96 252 -2 2 -16 -32 -31 -74z"/>
<path d="M6220 3995 l0 -236 203 3 c198 3 203 3 254 31 133 69 162 263 55 362 -57 54 -120 68 -324 73 l-188 4 0 -237z"/>
<path d="M2763 2261 c-26 -17 -73 -84 -73 -106 0 -3 68 -5 150 -5 98 0 150 4 150 10 0 19 -28 64 -54 89 -37 35 -127 41 -173 12z"/>
<path d="M3375 2266 c-42 -18 -83 -69 -91 -112 -4 -20 -4 -63 -1 -95 9 -102 75 -159 168 -146 85 11 134 79 134 187 0 72 -20 118 -66 153 -34 25 -105 31 -144 13z"/>
<path d="M4620 2262 c-127 -63 -113 -303 20 -343 50 -15 102 -5 141 28 42 36 59 79 59 151 0 139 -108 221 -220 164z"/>
<path d="M5970 2093 c-60 -10 -121 -36 -140 -60 -38 -49 -13 -121 43 -124 108 -5 167 46 167 146 0 48 -2 49 -70 38z"/>
<path d="M6820 2258 c-31 -22 -78 -93 -68 -104 3 -2 71 -3 151 -2 l146 3 -19 42 c-36 80 -138 109 -210 61z"/>
<path d="M7403 2261 c-34 -21 -56 -51 -68 -88 l-6 -23 150 0 c99 0 151 4 151 10 0 19 -28 64 -54 89 -37 35 -127 41 -173 12z"/>
</g>
</svg>
