<svg xmlns="http://www.w3.org/2000/svg" width="65" height="44" fill="none" viewBox="0 0 65 44">
  <path fill="color(display-p3 .549 .549 .549)" d="m39.2 5.683-4.8-3.358c-1.308-.917-3.317-.867-4.575.108L25.65 5.692c-.833.65-1.492 1.983-1.492 3.033v5.75a3.859 3.859 0 0 0 3.85 3.858h8.984a3.852 3.852 0 0 0 3.85-3.85v-5.65c0-1.125-.725-2.508-1.642-3.15ZM33.125 15a.63.63 0 0 1-.625.625.63.63 0 0 1-.625-.625v-2.5a.63.63 0 0 1 .625-.625.63.63 0 0 1 .625.625V15ZM21.093 40v-8.4h1.2V40h-1.2Zm-6.024 0v-8.4h1.2V40h-1.2Zm1.08-3.744v-1.044H21.2v1.044h-5.052Zm11.214 3.816c-.64 0-1.208-.14-1.704-.42a3.126 3.126 0 0 1-1.176-1.152 3.284 3.284 0 0 1-.432-1.68c0-.632.144-1.192.432-1.68.288-.488.68-.868 1.176-1.14.496-.28 1.064-.42 1.704-.42.632 0 1.196.14 1.692.42.504.272.896.652 1.176 1.14.288.48.432 1.04.432 1.68 0 .632-.144 1.192-.432 1.68-.28.488-.672.872-1.176 1.152-.496.28-1.06.42-1.692.42Zm0-1.008a2.15 2.15 0 0 0 1.092-.276c.328-.184.584-.444.768-.78a2.48 2.48 0 0 0 .276-1.188c0-.456-.092-.848-.276-1.176a1.948 1.948 0 0 0-.768-.78 2.15 2.15 0 0 0-1.092-.276 2.15 2.15 0 0 0-1.092.276c-.32.184-.576.444-.768.78-.192.328-.288.72-.288 1.176 0 .448.096.844.288 1.188.192.336.448.596.768.78.32.184.684.276 1.092.276Zm4.893.936v-6.36h1.104v1.692l-.18-.432c.2-.416.508-.74.924-.972.416-.232.9-.348 1.452-.348.608 0 1.132.152 1.572.456.44.296.728.748.864 1.356l-.468-.192c.192-.488.528-.88 1.008-1.176.48-.296 1.04-.444 1.68-.444.512 0 .964.1 1.356.3.392.2.696.504.912.912.224.408.336.924.336 1.548V40h-1.152v-3.528c0-.616-.144-1.08-.432-1.392-.288-.312-.692-.468-1.212-.468-.384 0-.72.08-1.008.24-.288.16-.512.396-.672.708-.152.312-.228.7-.228 1.164V40H36.96v-3.528c0-.616-.144-1.08-.432-1.392-.28-.312-.684-.468-1.212-.468-.376 0-.708.08-.996.24-.288.16-.512.396-.672.708-.16.312-.24.7-.24 1.164V40h-1.152Zm15.512.072c-.68 0-1.28-.14-1.8-.42a3.08 3.08 0 0 1-1.2-1.152c-.28-.488-.42-1.048-.42-1.68 0-.632.136-1.192.408-1.68a3 3 0 0 1 1.14-1.14 3.244 3.244 0 0 1 1.644-.42c.616 0 1.16.136 1.632.408.472.272.84.656 1.104 1.152.272.488.408 1.06.408 1.716 0 .048-.004.104-.012.168 0 .064-.004.124-.012.18h-5.412v-.828h4.812l-.468.288a2.139 2.139 0 0 0-.252-1.092 1.872 1.872 0 0 0-.732-.744 2.022 2.022 0 0 0-1.068-.276c-.4 0-.756.092-1.068.276a1.852 1.852 0 0 0-.732.756c-.176.32-.264.688-.264 1.104v.192c0 .424.096.804.288 1.14.2.328.476.584.828.768.352.184.756.276 1.212.276.376 0 .716-.064 1.02-.192.312-.128.584-.32.816-.576l.636.744a2.777 2.777 0 0 1-1.08.768c-.424.176-.9.264-1.428.264Z"/>
</svg>
