<svg xmlns="http://www.w3.org/2000/svg" width="27" height="20" fill="none" viewBox="0 0 27 20">
  <path fill="color(display-p3 .549 .549 .549)" d="m13.102 5.359-.914 3.031c-1.077 3.578-2.154 7.156-3.233 10.733-.243.807-1.16 1.14-1.82.643a1.512 1.512 0 0 1-.437-.574 784.99 784.99 0 0 1-2.821-6.32c-.078-.178-.172-.23-.363-.227-.697.01-1.394.006-2.091.004-.724-.003-1.26-.491-1.256-1.14.003-.641.534-1.132 1.242-1.135 1.026-.005 2.052-.004 3.078 0 .548.002.94.247 1.16.738.614 1.377 1.225 2.755 1.838 4.133.033.074.07.147.123.258.293-.971.575-1.901.854-2.83L12.001.912c.17-.566.618-.915 1.17-.913.546.002.976.358 1.138.942l2.967 10.712c.022.08.05.157.095.296.055-.15.092-.248.127-.347l1.65-4.713c.258-.734 1.021-1.054 1.688-.71.292.15.465.391.58.687.53 1.369 1.069 2.734 1.596 4.104.065.168.145.229.335.225.76-.012 1.52-.012 2.28-.002.797.009 1.341.656 1.178 1.385a1.12 1.12 0 0 1-1.07.871c-1.166.013-2.334.016-3.5-.001-.501-.008-.851-.28-1.032-.734-.252-.629-.495-1.26-.743-1.89-.03-.077-.065-.152-.117-.274l-.354.996c-.546 1.557-1.086 3.114-1.639 4.669-.302.85-1.382 1.075-1.979.41a1.38 1.38 0 0 1-.28-.539c-.966-3.458-1.922-6.92-2.88-10.38-.027-.095-.058-.187-.109-.348Z"/>
</svg>
