<svg xmlns="http://www.w3.org/2000/svg" width="35" height="12" fill="none" viewBox="0 0 35 12">
  <path fill="color(display-p3 .549 .549 .549)" d="M3.724 9.096a5.84 5.84 0 0 1-1.836-.288c-.584-.2-1.044-.456-1.38-.768l.444-.936c.32.28.728.512 1.224.696a4.415 4.415 0 0 0 1.548.276c.488 0 .884-.056 1.188-.168.304-.112.528-.264.672-.456.144-.2.216-.424.216-.672a.9.9 0 0 0-.288-.696 1.96 1.96 0 0 0-.732-.42 7.195 7.195 0 0 0-.984-.288c-.36-.08-.724-.172-1.092-.276a5.32 5.32 0 0 1-.996-.42 2.072 2.072 0 0 1-.72-.672C.804 3.72.712 3.352.712 2.904c0-.432.112-.828.336-1.188.232-.368.584-.66 1.056-.876.48-.224 1.088-.336 1.824-.336.488 0 .972.064 1.452.192s.896.312 1.248.552l-.396.96c-.36-.24-.74-.412-1.14-.516a4.31 4.31 0 0 0-1.164-.168c-.472 0-.86.06-1.164.18-.304.12-.528.28-.672.48-.136.2-.204.424-.204.672 0 .296.092.532.276.708.192.176.436.316.732.42.304.104.636.2.996.288.36.08.72.172 1.08.276.368.104.7.24.996.408.304.168.548.392.732.672.184.28.276.64.276 1.08 0 .424-.116.82-.348 1.188-.232.36-.592.652-1.08.876-.48.216-1.088.324-1.824.324Zm8.209-.024c-.528 0-1.012-.12-1.452-.36A2.751 2.751 0 0 1 9.437 7.62c-.256-.48-.384-1.08-.384-1.8s.124-1.32.372-1.8c.256-.48.6-.84 1.032-1.08.44-.24.932-.36 1.476-.36.624 0 1.176.136 1.656.408a3 3 0 0 1 1.14 1.14c.28.48.42 1.044.42 1.692 0 .648-.14 1.216-.42 1.704a3 3 0 0 1-1.14 1.14c-.48.272-1.032.408-1.656.408ZM8.56 11.328V2.64h1.104v1.716l-.072 1.476.12 1.476v4.02H8.56Zm3.276-3.264a2.15 2.15 0 0 0 1.092-.276c.328-.184.584-.444.768-.78.192-.344.288-.74.288-1.188 0-.456-.096-.848-.288-1.176a1.948 1.948 0 0 0-.768-.78 2.15 2.15 0 0 0-1.092-.276c-.4 0-.764.092-1.092.276-.32.184-.576.444-.768.78-.184.328-.276.72-.276 1.176 0 .448.092.844.276 1.188.192.336.448.596.768.78.328.184.692.276 1.092.276ZM20.63 9V7.656l-.06-.252V5.112c0-.488-.144-.864-.432-1.128-.28-.272-.704-.408-1.272-.408-.376 0-.744.064-1.104.192a2.76 2.76 0 0 0-.912.492l-.48-.864c.328-.264.72-.464 1.176-.6a4.87 4.87 0 0 1 1.452-.216c.872 0 1.544.212 2.016.636.472.424.708 1.072.708 1.944V9H20.63Zm-2.088.072c-.472 0-.888-.08-1.248-.24a1.927 1.927 0 0 1-.816-.66 1.713 1.713 0 0 1-.288-.972c0-.344.08-.656.24-.936.168-.28.436-.504.804-.672.376-.168.88-.252 1.512-.252h2.016v.828h-1.968c-.576 0-.964.096-1.164.288a.93.93 0 0 0-.3.696.91.91 0 0 0 .372.756c.248.184.592.276 1.032.276.432 0 .808-.096 1.128-.288a1.63 1.63 0 0 0 .708-.84l.228.792a1.82 1.82 0 0 1-.804.9c-.384.216-.868.324-1.452.324ZM23.854 9V2.64h1.104v1.728l-.108-.432c.176-.44.472-.776.888-1.008.416-.232.928-.348 1.536-.348v1.116a.875.875 0 0 0-.144-.012h-.12c-.616 0-1.104.184-1.464.552-.36.368-.54.9-.54 1.596V9h-1.152Zm5.776-1.536.024-1.476 3.66-3.348h1.392L31.898 5.4l-.624.528-1.644 1.536ZM28.694 9V.096h1.152V9h-1.152Zm4.86 0-2.496-3.096.744-.924L34.97 9h-1.416Z"/>
</svg>
